<?xml version="1.0" encoding="utf-8"?>
<!-- Generator: Adobe Illustrator 25.1.0, SVG Export Plug-In . SVG Version: 6.00 Build 0)  -->
<svg version="1.1" id="Layer_1" xmlns="http://www.w3.org/2000/svg" xmlns:xlink="http://www.w3.org/1999/xlink" x="0px" y="0px"
	 viewBox="0 0 72 72" style="enable-background:new 0 0 72 72;" xml:space="preserve">
<style type="text/css">
	.st0{fill:#FFFFFF;stroke:#D11148;stroke-width:2.3699;stroke-miterlimit:10;}
</style>
<path class="st0" d="M49.52,15l-24.6,24.6c-0.71,0.71-1.87,0.71-2.57,0l-3.53-3.53c-0.71-0.71-0.71-1.87,0-2.57l24.6-24.6
	c0.71-0.71,1.87-0.71,2.57,0l3.53,3.53C50.23,13.14,50.23,14.29,49.52,15z"/>
<path class="st0" d="M43.42,61.01l-24.6-24.6c-0.71-0.71-0.71-1.87,0-2.57l3.53-3.53c0.71-0.71,1.87-0.71,2.57,0l24.6,24.6
	c0.71,0.71,0.71,1.87,0,2.57l-3.53,3.53C45.28,61.72,44.13,61.72,43.42,61.01z"/>
</svg>
